<mxfile host="app.diagrams.net" modified="2024-02-08T22:45:29.980Z" agent="Mozilla/5.0 (Windows NT 10.0; Win64; x64) AppleWebKit/537.36 (KHTML, like Gecko) Chrome/121.0.0.0 Safari/537.36" etag="Ktnt4LvsXRkaahNs_-nF" version="23.1.2" type="github">
  <diagram name="Page-1" id="U13R7Wm6EYD1qB2DaHe_">
    <mxGraphModel dx="1395" dy="655" grid="1" gridSize="8" guides="1" tooltips="1" connect="1" arrows="1" fold="1" page="1" pageScale="1" pageWidth="8000" pageHeight="8000" math="0" shadow="0">
      <root>
        <mxCell id="0" />
        <mxCell id="1" parent="0" />
        <mxCell id="WsVEKeHnHSX3QlAMdzE4-9" value="PIPELINE&lt;br&gt;&lt;br&gt;&lt;br&gt;&lt;br&gt;&lt;br&gt;&lt;br&gt;&lt;br&gt;" style="rounded=1;whiteSpace=wrap;html=1;sketch=1;hachureGap=4;jiggle=2;curveFitting=1;fontFamily=Architects Daughter;fontSource=https%3A%2F%2Ffonts.googleapis.com%2Fcss%3Ffamily%3DArchitects%2BDaughter;fontSize=20;" vertex="1" parent="1">
          <mxGeometry x="1528" y="380" width="456" height="232" as="geometry" />
        </mxCell>
        <mxCell id="s0ZOie93lQ0Ljgx1va_m-1" value=".apply()" style="text;html=1;align=center;verticalAlign=middle;resizable=0;points=[];autosize=1;strokeColor=none;fillColor=none;rounded=0;sketch=1;curveFitting=1;jiggle=2;" parent="1" vertex="1">
          <mxGeometry x="240" y="128" width="64" height="32" as="geometry" />
        </mxCell>
        <mxCell id="9Z24KjF8AyinNiPs9Rzn-3" style="edgeStyle=orthogonalEdgeStyle;rounded=0;sketch=1;hachureGap=4;jiggle=2;curveFitting=1;orthogonalLoop=1;jettySize=auto;html=1;fontFamily=Architects Daughter;fontSource=https%3A%2F%2Ffonts.googleapis.com%2Fcss%3Ffamily%3DArchitects%2BDaughter;fontSize=16;" parent="1" source="s0ZOie93lQ0Ljgx1va_m-3" target="s0ZOie93lQ0Ljgx1va_m-15" edge="1">
          <mxGeometry relative="1" as="geometry" />
        </mxCell>
        <mxCell id="9Z24KjF8AyinNiPs9Rzn-5" style="edgeStyle=orthogonalEdgeStyle;rounded=0;sketch=1;hachureGap=4;jiggle=2;curveFitting=1;orthogonalLoop=1;jettySize=auto;html=1;fontFamily=Architects Daughter;fontSource=https%3A%2F%2Ffonts.googleapis.com%2Fcss%3Ffamily%3DArchitects%2BDaughter;fontSize=16;" parent="1" source="s0ZOie93lQ0Ljgx1va_m-3" target="s0ZOie93lQ0Ljgx1va_m-4" edge="1">
          <mxGeometry relative="1" as="geometry" />
        </mxCell>
        <mxCell id="s0ZOie93lQ0Ljgx1va_m-3" value="Basic f(x)" style="rounded=0;whiteSpace=wrap;html=1;fillColor=#f8cecc;strokeColor=#b85450;sketch=1;curveFitting=1;jiggle=2;" parent="1" vertex="1">
          <mxGeometry x="24" y="24" width="120" height="32" as="geometry" />
        </mxCell>
        <mxCell id="s0ZOie93lQ0Ljgx1va_m-4" value=".sum()" style="text;html=1;align=center;verticalAlign=middle;resizable=0;points=[];autosize=1;strokeColor=none;fillColor=none;rounded=0;sketch=1;curveFitting=1;jiggle=2;" parent="1" vertex="1">
          <mxGeometry x="240" y="32" width="56" height="32" as="geometry" />
        </mxCell>
        <mxCell id="s0ZOie93lQ0Ljgx1va_m-5" value=".groupby()" style="text;html=1;align=center;verticalAlign=middle;resizable=0;points=[];autosize=1;strokeColor=none;fillColor=none;rounded=0;sketch=1;curveFitting=1;jiggle=2;" parent="1" vertex="1">
          <mxGeometry x="244" y="56" width="72" height="32" as="geometry" />
        </mxCell>
        <mxCell id="s0ZOie93lQ0Ljgx1va_m-6" value="df.to_csv(&quot;foo.csv&quot;)" style="text;html=1;align=center;verticalAlign=middle;resizable=0;points=[];autosize=1;fontSize=20;fontFamily=Architects Daughter;" parent="1" vertex="1">
          <mxGeometry x="96" y="488" width="208" height="48" as="geometry" />
        </mxCell>
        <mxCell id="s0ZOie93lQ0Ljgx1va_m-8" style="edgeStyle=orthogonalEdgeStyle;rounded=0;sketch=1;hachureGap=4;jiggle=2;curveFitting=1;orthogonalLoop=1;jettySize=auto;html=1;fontFamily=Architects Daughter;fontSource=https%3A%2F%2Ffonts.googleapis.com%2Fcss%3Ffamily%3DArchitects%2BDaughter;fontSize=16;" parent="1" source="s0ZOie93lQ0Ljgx1va_m-7" target="s0ZOie93lQ0Ljgx1va_m-9" edge="1">
          <mxGeometry relative="1" as="geometry">
            <mxPoint x="248" y="312" as="targetPoint" />
          </mxGeometry>
        </mxCell>
        <mxCell id="s0ZOie93lQ0Ljgx1va_m-7" value="I/O API tools" style="text;html=1;align=center;verticalAlign=middle;resizable=0;points=[];autosize=1;strokeColor=#b85450;fillColor=#f8cecc;fontSize=20;fontFamily=Architects Daughter;" parent="1" vertex="1">
          <mxGeometry x="320" y="328" width="136" height="48" as="geometry" />
        </mxCell>
        <mxCell id="s0ZOie93lQ0Ljgx1va_m-9" value="https://pandas.pydata.org/pandas-docs/stable/user_guide/io.html" style="text;html=1;align=center;verticalAlign=middle;resizable=0;points=[];autosize=1;strokeColor=none;fillColor=none;fontSize=20;fontFamily=Architects Daughter;" parent="1" vertex="1">
          <mxGeometry x="528" y="328" width="608" height="48" as="geometry" />
        </mxCell>
        <mxCell id="s0ZOie93lQ0Ljgx1va_m-10" value="Top Level reader f(x)" style="text;html=1;align=center;verticalAlign=middle;resizable=0;points=[];autosize=1;strokeColor=none;fillColor=none;fontSize=20;fontFamily=Architects Daughter;" parent="1" vertex="1">
          <mxGeometry x="87" y="328" width="224" height="48" as="geometry" />
        </mxCell>
        <mxCell id="s0ZOie93lQ0Ljgx1va_m-11" value="df.to_datetime(&quot;foo.csv&quot;)" style="text;html=1;align=center;verticalAlign=middle;resizable=0;points=[];autosize=1;fontSize=20;fontFamily=Architects Daughter;" parent="1" vertex="1">
          <mxGeometry x="96" y="520" width="248" height="48" as="geometry" />
        </mxCell>
        <mxCell id="s0ZOie93lQ0Ljgx1va_m-13" value="df.to_read(&quot;foo.csv&quot;)" style="text;html=1;align=center;verticalAlign=middle;resizable=0;points=[];autosize=1;fontSize=20;fontFamily=Architects Daughter;" parent="1" vertex="1">
          <mxGeometry x="100" y="456" width="216" height="48" as="geometry" />
        </mxCell>
        <mxCell id="s0ZOie93lQ0Ljgx1va_m-14" value="Functions??" style="rounded=1;whiteSpace=wrap;html=1;sketch=1;hachureGap=4;jiggle=2;curveFitting=1;fontFamily=Architects Daughter;fontSource=https%3A%2F%2Ffonts.googleapis.com%2Fcss%3Ffamily%3DArchitects%2BDaughter;fontSize=20;" parent="1" vertex="1">
          <mxGeometry x="8" y="392" width="184" height="60" as="geometry" />
        </mxCell>
        <mxCell id="s0ZOie93lQ0Ljgx1va_m-15" value=".info()" style="text;html=1;align=center;verticalAlign=middle;resizable=0;points=[];autosize=1;strokeColor=none;fillColor=none;rounded=0;sketch=1;curveFitting=1;jiggle=2;" parent="1" vertex="1">
          <mxGeometry x="244" width="48" height="32" as="geometry" />
        </mxCell>
        <mxCell id="s0ZOie93lQ0Ljgx1va_m-16" value="Iterate over Pandas Data Frame" style="text;html=1;align=center;verticalAlign=middle;resizable=0;points=[];autosize=1;fontSize=20;fontFamily=Helvetica;shadow=1;rounded=1;fillColor=#dae8fc;strokeColor=#6c8ebf;" parent="1" vertex="1">
          <mxGeometry x="28" y="620" width="304" height="48" as="geometry" />
        </mxCell>
        <mxCell id="s0ZOie93lQ0Ljgx1va_m-17" value="SERIES" style="ellipse;whiteSpace=wrap;html=1;sketch=1;hachureGap=4;jiggle=2;curveFitting=1;fontFamily=Architects Daughter;fontSource=https%3A%2F%2Ffonts.googleapis.com%2Fcss%3Ffamily%3DArchitects%2BDaughter;fontSize=20;" parent="1" vertex="1">
          <mxGeometry x="712" y="72" width="120" height="80" as="geometry" />
        </mxCell>
        <mxCell id="s0ZOie93lQ0Ljgx1va_m-18" value="DATAFRAMES" style="ellipse;whiteSpace=wrap;html=1;sketch=1;hachureGap=4;jiggle=2;curveFitting=1;fontFamily=Architects Daughter;fontSource=https%3A%2F%2Ffonts.googleapis.com%2Fcss%3Ffamily%3DArchitects%2BDaughter;fontSize=20;" parent="1" vertex="1">
          <mxGeometry x="864" y="72" width="179" height="80" as="geometry" />
        </mxCell>
        <mxCell id="s0ZOie93lQ0Ljgx1va_m-21" value="OPTIMIZED PANDAS DATA ACCESS METHODS" style="shape=parallelogram;perimeter=parallelogramPerimeter;whiteSpace=wrap;html=1;fixedSize=1;sketch=1;hachureGap=4;jiggle=2;curveFitting=1;fontFamily=Architects Daughter;fontSource=https%3A%2F%2Ffonts.googleapis.com%2Fcss%3Ffamily%3DArchitects%2BDaughter;fontSize=20;" parent="1" vertex="1">
          <mxGeometry x="616" y="176" width="530" height="60" as="geometry" />
        </mxCell>
        <mxCell id="9Z24KjF8AyinNiPs9Rzn-1" value="Creating&lt;br&gt;ENGINE&lt;br&gt;Instance" style="text;html=1;align=center;verticalAlign=middle;resizable=0;points=[];autosize=1;strokeColor=none;fillColor=none;fontFamily=Architects Daughter;fontSource=https%3A%2F%2Ffonts.googleapis.com%2Fcss%3Ffamily%3DArchitects%2BDaughter;fontSize=20;" parent="1" vertex="1">
          <mxGeometry x="168" y="848" width="96" height="96" as="geometry" />
        </mxCell>
        <mxCell id="9Z24KjF8AyinNiPs9Rzn-2" value="SQLAlquemy" style="rounded=0;whiteSpace=wrap;html=1;sketch=1;hachureGap=4;jiggle=2;curveFitting=1;fontFamily=Architects Daughter;fontSource=https%3A%2F%2Ffonts.googleapis.com%2Fcss%3Ffamily%3DArchitects%2BDaughter;fontSize=20;" parent="1" vertex="1">
          <mxGeometry x="128" y="760" width="176" height="60" as="geometry" />
        </mxCell>
        <mxCell id="9Z24KjF8AyinNiPs9Rzn-4" style="edgeStyle=orthogonalEdgeStyle;rounded=0;sketch=1;hachureGap=4;jiggle=2;curveFitting=1;orthogonalLoop=1;jettySize=auto;html=1;entryX=0.03;entryY=0.68;entryDx=0;entryDy=0;entryPerimeter=0;fontFamily=Architects Daughter;fontSource=https%3A%2F%2Ffonts.googleapis.com%2Fcss%3Ffamily%3DArchitects%2BDaughter;fontSize=16;" parent="1" source="s0ZOie93lQ0Ljgx1va_m-3" target="s0ZOie93lQ0Ljgx1va_m-5" edge="1">
          <mxGeometry relative="1" as="geometry" />
        </mxCell>
        <mxCell id="9Z24KjF8AyinNiPs9Rzn-6" value="Advance f(x)" style="rounded=0;whiteSpace=wrap;html=1;fillColor=#f8cecc;strokeColor=#b85450;sketch=1;curveFitting=1;jiggle=2;" parent="1" vertex="1">
          <mxGeometry x="24" y="120" width="120" height="32" as="geometry" />
        </mxCell>
        <mxCell id="9Z24KjF8AyinNiPs9Rzn-7" style="edgeStyle=orthogonalEdgeStyle;rounded=0;sketch=1;hachureGap=4;jiggle=2;curveFitting=1;orthogonalLoop=1;jettySize=auto;html=1;entryX=-0.063;entryY=0.5;entryDx=0;entryDy=0;entryPerimeter=0;fontFamily=Architects Daughter;fontSource=https%3A%2F%2Ffonts.googleapis.com%2Fcss%3Ffamily%3DArchitects%2BDaughter;fontSize=16;" parent="1" source="9Z24KjF8AyinNiPs9Rzn-6" target="s0ZOie93lQ0Ljgx1va_m-1" edge="1">
          <mxGeometry relative="1" as="geometry" />
        </mxCell>
        <mxCell id="9Z24KjF8AyinNiPs9Rzn-8" value="" style="endArrow=none;html=1;rounded=0;sketch=1;hachureGap=4;jiggle=2;curveFitting=1;fontFamily=Architects Daughter;fontSource=https%3A%2F%2Ffonts.googleapis.com%2Fcss%3Ffamily%3DArchitects%2BDaughter;fontSize=16;" parent="1" edge="1">
          <mxGeometry width="50" height="50" relative="1" as="geometry">
            <mxPoint x="416" y="560" as="sourcePoint" />
            <mxPoint x="416" y="416" as="targetPoint" />
          </mxGeometry>
        </mxCell>
        <mxCell id="9Z24KjF8AyinNiPs9Rzn-9" value="&lt;span style=&quot;color: rgb(196, 199, 197); font-family: &amp;quot;Google Sans Mono&amp;quot;, monospace; font-size: 14px; font-style: normal; font-variant-ligatures: normal; font-variant-caps: normal; font-weight: 400; letter-spacing: normal; orphans: 2; text-align: start; text-indent: 0px; text-transform: none; widows: 2; word-spacing: 0px; -webkit-text-stroke-width: 0px; background-color: rgb(40, 42, 44); text-decoration-thickness: initial; text-decoration-style: initial; text-decoration-color: initial; float: none; display: inline !important;&quot;&gt;from sqlalchemy.engine.base import create_engine&lt;/span&gt;" style="rounded=1;whiteSpace=wrap;html=1;sketch=1;hachureGap=4;jiggle=2;curveFitting=1;fontFamily=Architects Daughter;fontSource=https%3A%2F%2Ffonts.googleapis.com%2Fcss%3Ffamily%3DArchitects%2BDaughter;fontSize=20;" parent="1" vertex="1">
          <mxGeometry x="8" y="968" width="424" height="48" as="geometry" />
        </mxCell>
        <mxCell id="WsVEKeHnHSX3QlAMdzE4-1" value="DAG&lt;br&gt;Directed Acyclic Graph" style="ellipse;whiteSpace=wrap;html=1;aspect=fixed;sketch=1;hachureGap=4;jiggle=2;curveFitting=1;fontFamily=Architects Daughter;fontSource=https%3A%2F%2Ffonts.googleapis.com%2Fcss%3Ffamily%3DArchitects%2BDaughter;fontSize=20;" vertex="1" parent="1">
          <mxGeometry x="1440" y="88" width="248" height="248" as="geometry" />
        </mxCell>
        <mxCell id="WsVEKeHnHSX3QlAMdzE4-2" value="" style="endArrow=none;html=1;rounded=0;sketch=1;hachureGap=4;jiggle=2;curveFitting=1;fontFamily=Architects Daughter;fontSource=https%3A%2F%2Ffonts.googleapis.com%2Fcss%3Ffamily%3DArchitects%2BDaughter;fontSize=16;" edge="1" parent="1">
          <mxGeometry width="50" height="50" relative="1" as="geometry">
            <mxPoint x="1280" y="1048" as="sourcePoint" />
            <mxPoint x="1280" y="72" as="targetPoint" />
          </mxGeometry>
        </mxCell>
        <mxCell id="WsVEKeHnHSX3QlAMdzE4-3" value="DAG" style="ellipse;whiteSpace=wrap;html=1;aspect=fixed;sketch=1;hachureGap=4;jiggle=2;curveFitting=1;fontFamily=Architects Daughter;fontSource=https%3A%2F%2Ffonts.googleapis.com%2Fcss%3Ffamily%3DArchitects%2BDaughter;fontSize=20;" vertex="1" parent="1">
          <mxGeometry x="1840" y="452" width="80" height="80" as="geometry" />
        </mxCell>
        <mxCell id="WsVEKeHnHSX3QlAMdzE4-4" value="DAG" style="ellipse;whiteSpace=wrap;html=1;aspect=fixed;sketch=1;hachureGap=4;jiggle=2;curveFitting=1;fontFamily=Architects Daughter;fontSource=https%3A%2F%2Ffonts.googleapis.com%2Fcss%3Ffamily%3DArchitects%2BDaughter;fontSize=20;" vertex="1" parent="1">
          <mxGeometry x="1696" y="452" width="80" height="80" as="geometry" />
        </mxCell>
        <mxCell id="WsVEKeHnHSX3QlAMdzE4-6" style="edgeStyle=orthogonalEdgeStyle;rounded=0;sketch=1;hachureGap=4;jiggle=2;curveFitting=1;orthogonalLoop=1;jettySize=auto;html=1;fontFamily=Architects Daughter;fontSource=https%3A%2F%2Ffonts.googleapis.com%2Fcss%3Ffamily%3DArchitects%2BDaughter;fontSize=16;entryX=0;entryY=0.625;entryDx=0;entryDy=0;entryPerimeter=0;" edge="1" parent="1" source="WsVEKeHnHSX3QlAMdzE4-5" target="WsVEKeHnHSX3QlAMdzE4-4">
          <mxGeometry relative="1" as="geometry">
            <mxPoint x="1672" y="504" as="targetPoint" />
          </mxGeometry>
        </mxCell>
        <mxCell id="WsVEKeHnHSX3QlAMdzE4-5" value="DAG" style="ellipse;whiteSpace=wrap;html=1;aspect=fixed;sketch=1;hachureGap=4;jiggle=2;curveFitting=1;fontFamily=Architects Daughter;fontSource=https%3A%2F%2Ffonts.googleapis.com%2Fcss%3Ffamily%3DArchitects%2BDaughter;fontSize=20;" vertex="1" parent="1">
          <mxGeometry x="1560" y="456" width="80" height="80" as="geometry" />
        </mxCell>
        <mxCell id="WsVEKeHnHSX3QlAMdzE4-7" style="edgeStyle=orthogonalEdgeStyle;rounded=0;sketch=1;hachureGap=4;jiggle=2;curveFitting=1;orthogonalLoop=1;jettySize=auto;html=1;entryX=-0.02;entryY=0.588;entryDx=0;entryDy=0;entryPerimeter=0;fontFamily=Architects Daughter;fontSource=https%3A%2F%2Ffonts.googleapis.com%2Fcss%3Ffamily%3DArchitects%2BDaughter;fontSize=16;" edge="1" parent="1" source="WsVEKeHnHSX3QlAMdzE4-4" target="WsVEKeHnHSX3QlAMdzE4-3">
          <mxGeometry relative="1" as="geometry" />
        </mxCell>
        <mxCell id="WsVEKeHnHSX3QlAMdzE4-8" value="COORDINATED FLUX" style="text;html=1;align=center;verticalAlign=middle;resizable=0;points=[];autosize=1;strokeColor=none;fillColor=none;fontFamily=Architects Daughter;fontSource=https%3A%2F%2Ffonts.googleapis.com%2Fcss%3Ffamily%3DArchitects%2BDaughter;fontSize=20;" vertex="1" parent="1">
          <mxGeometry x="1752" y="568" width="216" height="48" as="geometry" />
        </mxCell>
        <mxCell id="WsVEKeHnHSX3QlAMdzE4-10" value="SCHEDULER" style="text;html=1;align=center;verticalAlign=middle;resizable=0;points=[];autosize=1;strokeColor=none;fillColor=none;fontFamily=Architects Daughter;fontSource=https%3A%2F%2Ffonts.googleapis.com%2Fcss%3Ffamily%3DArchitects%2BDaughter;fontSize=20;" vertex="1" parent="1">
          <mxGeometry x="1552" y="532" width="136" height="48" as="geometry" />
        </mxCell>
        <mxCell id="WsVEKeHnHSX3QlAMdzE4-11" value="" style="endArrow=classic;html=1;rounded=0;sketch=1;hachureGap=4;jiggle=2;curveFitting=1;fontFamily=Architects Daughter;fontSource=https%3A%2F%2Ffonts.googleapis.com%2Fcss%3Ffamily%3DArchitects%2BDaughter;fontSize=16;" edge="1" parent="1">
          <mxGeometry width="50" height="50" relative="1" as="geometry">
            <mxPoint x="1704" y="555.71" as="sourcePoint" />
            <mxPoint x="1912" y="555.71" as="targetPoint" />
            <Array as="points">
              <mxPoint x="1768" y="555.71" />
            </Array>
          </mxGeometry>
        </mxCell>
        <mxCell id="WsVEKeHnHSX3QlAMdzE4-13" value="&lt;font style=&quot;font-size: 12px;&quot;&gt;AIRFLOW&lt;/font&gt;" style="rounded=0;whiteSpace=wrap;html=1;sketch=1;hachureGap=4;jiggle=2;curveFitting=1;fontFamily=Architects Daughter;fontSource=https%3A%2F%2Ffonts.googleapis.com%2Fcss%3Ffamily%3DArchitects%2BDaughter;fontSize=20;" vertex="1" parent="1">
          <mxGeometry x="1552" y="400" width="84" height="36" as="geometry" />
        </mxCell>
      </root>
    </mxGraphModel>
  </diagram>
</mxfile>
